<?xml version="1.0" standalone="no"?>
<!DOCTYPE svg PUBLIC "-//W3C//DTD SVG 20010904//EN"
 "http://www.w3.org/TR/2001/REC-SVG-20010904/DTD/svg10.dtd">
<svg version="1.0" xmlns="http://www.w3.org/2000/svg"
 width="500.000000pt" height="421.000000pt" viewBox="0 0 500.000000 421.000000"
 preserveAspectRatio="xMidYMid meet">
 <style>
    path{
        fill:#32CD32;
    }
 </style>
<g transform="translate(0.000000,421.000000) scale(0.100000,-0.100000)"
fill="#000000" stroke="none">
<path d="M3920 4178 c-195 -17 -358 -33 -362 -37 -4 -3 -15 -58 -23 -121 -60
-431 -191 -897 -374 -1329 -65 -153 -349 -773 -464 -1013 l-75 -157 121 -113
c67 -62 145 -134 172 -160 l51 -47 58 137 c84 196 270 575 433 882 205 386
458 878 521 1010 135 287 269 625 345 868 l35 112 -41 -1 c-23 -1 -202 -15
-397 -31z"/>
<path d="M747 3813 c47 -142 86 -259 87 -259 3 -4 367 64 372 69 6 6 -62 237
-74 248 -4 4 -108 49 -232 99 -124 51 -228 94 -232 96 -3 2 32 -112 79 -253z"/>
<path d="M2120 3549 c-477 -24 -1815 -141 -1835 -161 -5 -5 -152 -718 -148
-718 2 0 69 20 151 44 983 297 1865 443 2547 422 121 -4 251 -10 289 -14 63
-8 69 -7 77 12 20 45 120 398 115 404 -20 19 -869 27 -1196 11z"/>
<path d="M4098 3243 c-47 -104 -83 -190 -81 -192 5 -6 607 -130 612 -126 4 5
48 459 45 464 -2 3 -435 40 -475 41 -11 0 -42 -57 -101 -187z"/>
<path d="M1361 2829 c-124 -16 -226 -31 -228 -33 -4 -3 315 -555 502 -871 245
-411 500 -781 716 -1040 291 -348 681 -664 1030 -836 l67 -32 298 269 c163
148 316 285 338 305 l40 36 -100 6 c-312 21 -630 139 -954 355 -406 271 -721
589 -1005 1017 -163 246 -295 491 -411 762 -25 60 -44 92 -54 92 -8 -1 -116
-14 -239 -30z"/>
<path d="M2030 865 c-292 -125 -545 -188 -685 -170 l-50 7 35 -35 c19 -19 194
-177 388 -351 331 -295 356 -316 391 -316 25 0 53 10 83 30 78 52 209 198 301
337 48 72 87 133 87 135 0 5 -430 403 -438 405 -4 2 -54 -18 -112 -42z"/>
</g>
</svg>
